<mxfile host="app.diagrams.net" modified="2024-06-14T17:42:26.180Z" agent="Mozilla/5.0 (Windows NT 10.0; Win64; x64) AppleWebKit/537.36 (KHTML, like Gecko) Chrome/125.0.0.0 Safari/537.36" etag="f4p26FZOBrPG10d71_vt" version="24.5.4" type="github">
  <diagram name="PÃ¡gina-1" id="pgBRXNL5Wy7q0IOiLuQR">
    <mxGraphModel dx="15167" dy="5042" grid="1" gridSize="10" guides="1" tooltips="1" connect="1" arrows="1" fold="1" page="1" pageScale="1" pageWidth="827" pageHeight="1169" math="0" shadow="0">
      <root>
        <mxCell id="0" />
        <mxCell id="1" parent="0" />
        <mxCell id="232nqohX3rdVLc9LNGee-1" value="" style="rounded=0;whiteSpace=wrap;html=1;" parent="1" vertex="1">
          <mxGeometry x="1250" y="3320" width="930" height="1090" as="geometry" />
        </mxCell>
        <mxCell id="232nqohX3rdVLc9LNGee-2" value="" style="rounded=0;whiteSpace=wrap;html=1;strokeColor=default;dashed=1;" parent="1" vertex="1">
          <mxGeometry x="1713.74" y="3418" width="360" height="265" as="geometry" />
        </mxCell>
        <mxCell id="232nqohX3rdVLc9LNGee-3" style="edgeStyle=orthogonalEdgeStyle;rounded=0;orthogonalLoop=1;jettySize=auto;html=1;entryX=0;entryY=0.5;entryDx=0;entryDy=0;exitX=0.5;exitY=1;exitDx=0;exitDy=0;flowAnimation=0;" parent="1" source="232nqohX3rdVLc9LNGee-12" target="232nqohX3rdVLc9LNGee-14" edge="1">
          <mxGeometry relative="1" as="geometry">
            <Array as="points">
              <mxPoint x="1366.74" y="3430" />
              <mxPoint x="1366.74" y="3550" />
            </Array>
          </mxGeometry>
        </mxCell>
        <mxCell id="232nqohX3rdVLc9LNGee-9" style="edgeStyle=orthogonalEdgeStyle;rounded=0;orthogonalLoop=1;jettySize=auto;html=1;entryX=0;entryY=0.5;entryDx=0;entryDy=0;" parent="1" source="232nqohX3rdVLc9LNGee-12" target="232nqohX3rdVLc9LNGee-20" edge="1">
          <mxGeometry relative="1" as="geometry">
            <Array as="points">
              <mxPoint x="1367" y="4250" />
              <mxPoint x="1470" y="4250" />
            </Array>
          </mxGeometry>
        </mxCell>
        <mxCell id="232nqohX3rdVLc9LNGee-12" value="api" style="rounded=1;whiteSpace=wrap;html=1;fillColor=#e1d5e7;strokeColor=#9673a6;" parent="1" vertex="1">
          <mxGeometry x="1306.7399999999998" y="3370" width="120" height="60" as="geometry" />
        </mxCell>
        <mxCell id="232nqohX3rdVLc9LNGee-13" style="edgeStyle=orthogonalEdgeStyle;rounded=0;orthogonalLoop=1;jettySize=auto;html=1;entryX=0;entryY=0.5;entryDx=0;entryDy=0;" parent="1" source="232nqohX3rdVLc9LNGee-14" target="232nqohX3rdVLc9LNGee-2" edge="1">
          <mxGeometry relative="1" as="geometry" />
        </mxCell>
        <mxCell id="232nqohX3rdVLc9LNGee-14" value="users" style="rounded=0;whiteSpace=wrap;html=1;" parent="1" vertex="1">
          <mxGeometry x="1486.74" y="3520" width="120" height="60" as="geometry" />
        </mxCell>
        <mxCell id="232nqohX3rdVLc9LNGee-15" style="edgeStyle=orthogonalEdgeStyle;rounded=0;orthogonalLoop=1;jettySize=auto;html=1;entryX=0;entryY=0.5;entryDx=0;entryDy=0;" parent="1" source="232nqohX3rdVLc9LNGee-16" target="232nqohX3rdVLc9LNGee-32" edge="1">
          <mxGeometry relative="1" as="geometry" />
        </mxCell>
        <mxCell id="232nqohX3rdVLc9LNGee-16" value="auth" style="rounded=0;whiteSpace=wrap;html=1;" parent="1" vertex="1">
          <mxGeometry x="-150" y="3725" width="120" height="60" as="geometry" />
        </mxCell>
        <mxCell id="232nqohX3rdVLc9LNGee-17" style="edgeStyle=orthogonalEdgeStyle;rounded=0;orthogonalLoop=1;jettySize=auto;html=1;entryX=0;entryY=0.25;entryDx=0;entryDy=0;" parent="1" source="232nqohX3rdVLc9LNGee-18" target="232nqohX3rdVLc9LNGee-39" edge="1">
          <mxGeometry relative="1" as="geometry">
            <Array as="points">
              <mxPoint x="1714" y="3870" />
            </Array>
          </mxGeometry>
        </mxCell>
        <mxCell id="232nqohX3rdVLc9LNGee-18" value="enterprise" style="rounded=0;whiteSpace=wrap;html=1;" parent="1" vertex="1">
          <mxGeometry x="1486.81" y="3840" width="120" height="60" as="geometry" />
        </mxCell>
        <mxCell id="232nqohX3rdVLc9LNGee-19" style="edgeStyle=orthogonalEdgeStyle;rounded=0;orthogonalLoop=1;jettySize=auto;html=1;entryX=0;entryY=0.5;entryDx=0;entryDy=0;" parent="1" source="232nqohX3rdVLc9LNGee-20" target="232nqohX3rdVLc9LNGee-45" edge="1">
          <mxGeometry relative="1" as="geometry" />
        </mxCell>
        <mxCell id="232nqohX3rdVLc9LNGee-20" value="record" style="rounded=0;whiteSpace=wrap;html=1;" parent="1" vertex="1">
          <mxGeometry x="1470.07" y="4215" width="120" height="60" as="geometry" />
        </mxCell>
        <mxCell id="232nqohX3rdVLc9LNGee-25" value="POST - /user/create" style="shape=step;perimeter=stepPerimeter;whiteSpace=wrap;html=1;fixedSize=1;fillColor=#d5e8d4;strokeColor=default;" parent="1" vertex="1">
          <mxGeometry x="1723.74" y="3428" width="340.14" height="40" as="geometry" />
        </mxCell>
        <mxCell id="232nqohX3rdVLc9LNGee-26" value="GET - /user" style="shape=step;perimeter=stepPerimeter;whiteSpace=wrap;html=1;fixedSize=1;fillColor=#dae8fc;strokeColor=default;" parent="1" vertex="1">
          <mxGeometry x="1723.74" y="3529" width="340.14" height="40" as="geometry" />
        </mxCell>
        <mxCell id="232nqohX3rdVLc9LNGee-27" value="PUT - /user/{id}" style="shape=step;perimeter=stepPerimeter;whiteSpace=wrap;html=1;fixedSize=1;fillColor=#ffe6cc;strokeColor=default;" parent="1" vertex="1">
          <mxGeometry x="1723.74" y="3579" width="340.14" height="40" as="geometry" />
        </mxCell>
        <mxCell id="232nqohX3rdVLc9LNGee-28" value="DELETE - /user/{id}" style="shape=step;perimeter=stepPerimeter;whiteSpace=wrap;html=1;fixedSize=1;fillColor=#f8cecc;strokeColor=default;" parent="1" vertex="1">
          <mxGeometry x="1723.74" y="3629" width="340.14" height="40" as="geometry" />
        </mxCell>
        <mxCell id="232nqohX3rdVLc9LNGee-32" value="" style="rounded=0;whiteSpace=wrap;html=1;strokeColor=default;dashed=1;" parent="1" vertex="1">
          <mxGeometry x="76.92999999999984" y="3600" width="360" height="310" as="geometry" />
        </mxCell>
        <mxCell id="232nqohX3rdVLc9LNGee-33" value="POST - /source" style="shape=step;perimeter=stepPerimeter;whiteSpace=wrap;html=1;fixedSize=1;fillColor=#d5e8d4;strokeColor=default;" parent="1" vertex="1">
          <mxGeometry x="86.92999999999984" y="3610" width="340.14" height="40" as="geometry" />
        </mxCell>
        <mxCell id="232nqohX3rdVLc9LNGee-34" value="GET - /source" style="shape=step;perimeter=stepPerimeter;whiteSpace=wrap;html=1;fixedSize=1;fillColor=#dae8fc;strokeColor=default;" parent="1" vertex="1">
          <mxGeometry x="86.92999999999984" y="3660" width="340.14" height="40" as="geometry" />
        </mxCell>
        <mxCell id="232nqohX3rdVLc9LNGee-35" value="PUT - /source/{id}" style="shape=step;perimeter=stepPerimeter;whiteSpace=wrap;html=1;fixedSize=1;fillColor=#ffe6cc;strokeColor=default;" parent="1" vertex="1">
          <mxGeometry x="86.92999999999984" y="3710" width="340.14" height="40" as="geometry" />
        </mxCell>
        <mxCell id="232nqohX3rdVLc9LNGee-36" value="DELETE - /source/{id}" style="shape=step;perimeter=stepPerimeter;whiteSpace=wrap;html=1;fixedSize=1;fillColor=#f8cecc;strokeColor=default;" parent="1" vertex="1">
          <mxGeometry x="86.92999999999984" y="3760" width="340.14" height="40" as="geometry" />
        </mxCell>
        <mxCell id="232nqohX3rdVLc9LNGee-37" value="GET - /source/monitoring/{monitoring_id}" style="shape=step;perimeter=stepPerimeter;whiteSpace=wrap;html=1;fixedSize=1;fillColor=#dae8fc;strokeColor=default;" parent="1" vertex="1">
          <mxGeometry x="86.92999999999984" y="3810" width="340.14" height="40" as="geometry" />
        </mxCell>
        <mxCell id="232nqohX3rdVLc9LNGee-38" value="GET - /source/category/{category}" style="shape=step;perimeter=stepPerimeter;whiteSpace=wrap;html=1;fixedSize=1;fillColor=#dae8fc;strokeColor=default;" parent="1" vertex="1">
          <mxGeometry x="86.92999999999984" y="3860" width="340.14" height="40" as="geometry" />
        </mxCell>
        <mxCell id="232nqohX3rdVLc9LNGee-39" value="" style="rounded=0;whiteSpace=wrap;html=1;strokeColor=default;dashed=1;" parent="1" vertex="1">
          <mxGeometry x="1713.74" y="3800" width="360" height="260" as="geometry" />
        </mxCell>
        <mxCell id="232nqohX3rdVLc9LNGee-40" value="POST - /enterprise" style="shape=step;perimeter=stepPerimeter;whiteSpace=wrap;html=1;fixedSize=1;fillColor=#d5e8d4;strokeColor=default;" parent="1" vertex="1">
          <mxGeometry x="1723.7399999999998" y="3810" width="340.14" height="40" as="geometry" />
        </mxCell>
        <mxCell id="232nqohX3rdVLc9LNGee-41" value="GET - /enterprise" style="shape=step;perimeter=stepPerimeter;whiteSpace=wrap;html=1;fixedSize=1;fillColor=#dae8fc;strokeColor=default;" parent="1" vertex="1">
          <mxGeometry x="1723.7399999999998" y="3860" width="340.14" height="40" as="geometry" />
        </mxCell>
        <mxCell id="232nqohX3rdVLc9LNGee-42" value="PUT - /enterprise/{id}" style="shape=step;perimeter=stepPerimeter;whiteSpace=wrap;html=1;fixedSize=1;fillColor=#ffe6cc;strokeColor=default;" parent="1" vertex="1">
          <mxGeometry x="1723.7399999999998" y="3910" width="340.14" height="40" as="geometry" />
        </mxCell>
        <mxCell id="232nqohX3rdVLc9LNGee-43" value="DELETE - /enterprise/{id}" style="shape=step;perimeter=stepPerimeter;whiteSpace=wrap;html=1;fixedSize=1;fillColor=#f8cecc;strokeColor=default;" parent="1" vertex="1">
          <mxGeometry x="1723.7399999999998" y="3960" width="340.14" height="40" as="geometry" />
        </mxCell>
        <mxCell id="232nqohX3rdVLc9LNGee-44" value="GET - /enterprise/category/{category}" style="shape=step;perimeter=stepPerimeter;whiteSpace=wrap;html=1;fixedSize=1;fillColor=#dae8fc;strokeColor=default;" parent="1" vertex="1">
          <mxGeometry x="1723.7399999999998" y="4010" width="340.14" height="40" as="geometry" />
        </mxCell>
        <mxCell id="232nqohX3rdVLc9LNGee-45" value="" style="rounded=0;whiteSpace=wrap;html=1;strokeColor=default;dashed=1;" parent="1" vertex="1">
          <mxGeometry x="1713.74" y="4140" width="360" height="210" as="geometry" />
        </mxCell>
        <mxCell id="232nqohX3rdVLc9LNGee-46" value="POST - /record" style="shape=step;perimeter=stepPerimeter;whiteSpace=wrap;html=1;fixedSize=1;fillColor=#d5e8d4;strokeColor=default;" parent="1" vertex="1">
          <mxGeometry x="1723.7399999999998" y="4150" width="340.14" height="40" as="geometry" />
        </mxCell>
        <mxCell id="232nqohX3rdVLc9LNGee-47" value="GET - /record" style="shape=step;perimeter=stepPerimeter;whiteSpace=wrap;html=1;fixedSize=1;fillColor=#dae8fc;strokeColor=default;" parent="1" vertex="1">
          <mxGeometry x="1723.7399999999998" y="4200" width="340.14" height="40" as="geometry" />
        </mxCell>
        <mxCell id="232nqohX3rdVLc9LNGee-48" value="PUT - /record/{id}" style="shape=step;perimeter=stepPerimeter;whiteSpace=wrap;html=1;fixedSize=1;fillColor=#ffe6cc;strokeColor=default;" parent="1" vertex="1">
          <mxGeometry x="1723.7399999999998" y="4250" width="340.14" height="40" as="geometry" />
        </mxCell>
        <mxCell id="232nqohX3rdVLc9LNGee-49" value="DELETE - /record/{id}" style="shape=step;perimeter=stepPerimeter;whiteSpace=wrap;html=1;fixedSize=1;fillColor=#f8cecc;strokeColor=default;" parent="1" vertex="1">
          <mxGeometry x="1723.7399999999998" y="4300" width="340.14" height="40" as="geometry" />
        </mxCell>
        <mxCell id="232nqohX3rdVLc9LNGee-85" value="POST - /user/login" style="shape=step;perimeter=stepPerimeter;whiteSpace=wrap;html=1;fixedSize=1;fillColor=#d5e8d4;strokeColor=default;" parent="1" vertex="1">
          <mxGeometry x="1723.6" y="3479" width="340.14" height="40" as="geometry" />
        </mxCell>
        <mxCell id="bSaf6muhmZEkir6pIyGk-2" style="edgeStyle=orthogonalEdgeStyle;rounded=0;orthogonalLoop=1;jettySize=auto;html=1;" parent="1" edge="1">
          <mxGeometry relative="1" as="geometry">
            <mxPoint x="1370" y="3870" as="sourcePoint" />
            <mxPoint x="1486.77" y="3869.63" as="targetPoint" />
            <Array as="points">
              <mxPoint x="1486.77" y="3869.63" />
            </Array>
          </mxGeometry>
        </mxCell>
        <mxCell id="bSaf6muhmZEkir6pIyGk-3" value="" style="rounded=0;whiteSpace=wrap;html=1;" parent="1" vertex="1">
          <mxGeometry x="2540" y="3330" width="290" height="410" as="geometry" />
        </mxCell>
        <mxCell id="bSaf6muhmZEkir6pIyGk-4" style="edgeStyle=orthogonalEdgeStyle;rounded=0;orthogonalLoop=1;jettySize=auto;html=1;entryX=0.5;entryY=0;entryDx=0;entryDy=0;" parent="1" target="bSaf6muhmZEkir6pIyGk-10" edge="1">
          <mxGeometry relative="1" as="geometry">
            <mxPoint x="2680" y="3590" as="targetPoint" />
            <mxPoint x="2680" y="3500" as="sourcePoint" />
          </mxGeometry>
        </mxCell>
        <mxCell id="bSaf6muhmZEkir6pIyGk-6" style="edgeStyle=orthogonalEdgeStyle;rounded=0;orthogonalLoop=1;jettySize=auto;html=1;" parent="1" edge="1">
          <mxGeometry relative="1" as="geometry">
            <mxPoint x="2680.076923076923" y="3410" as="sourcePoint" />
            <mxPoint x="2680.000000000001" y="3440" as="targetPoint" />
          </mxGeometry>
        </mxCell>
        <mxCell id="bSaf6muhmZEkir6pIyGk-8" value="user" style="text;html=1;strokeColor=none;fillColor=none;align=center;verticalAlign=middle;whiteSpace=wrap;rounded=0;" parent="1" vertex="1">
          <mxGeometry x="2650" y="3333" width="60" height="30" as="geometry" />
        </mxCell>
        <mxCell id="bSaf6muhmZEkir6pIyGk-9" style="edgeStyle=orthogonalEdgeStyle;rounded=0;orthogonalLoop=1;jettySize=auto;html=1;entryX=0.5;entryY=0;entryDx=0;entryDy=0;" parent="1" source="bSaf6muhmZEkir6pIyGk-10" target="bSaf6muhmZEkir6pIyGk-11" edge="1">
          <mxGeometry relative="1" as="geometry" />
        </mxCell>
        <mxCell id="bSaf6muhmZEkir6pIyGk-10" value="createNewUser" style="shape=parallelogram;perimeter=parallelogramPerimeter;whiteSpace=wrap;html=1;fixedSize=1;" parent="1" vertex="1">
          <mxGeometry x="2550.5" y="3610" width="259" height="30" as="geometry" />
        </mxCell>
        <mxCell id="bSaf6muhmZEkir6pIyGk-11" value="userLogin" style="shape=parallelogram;perimeter=parallelogramPerimeter;whiteSpace=wrap;html=1;fixedSize=1;" parent="1" vertex="1">
          <mxGeometry x="2550.5" y="3690" width="259" height="30" as="geometry" />
        </mxCell>
        <mxCell id="bSaf6muhmZEkir6pIyGk-12" value="" style="shape=actor;whiteSpace=wrap;html=1;" parent="1" vertex="1">
          <mxGeometry x="2662.5" y="3355" width="35" height="50" as="geometry" />
        </mxCell>
        <mxCell id="bSaf6muhmZEkir6pIyGk-14" value="api" style="rounded=1;whiteSpace=wrap;html=1;fillColor=#e1d5e7;strokeColor=#9673a6;" parent="1" vertex="1">
          <mxGeometry x="2620" y="3440" width="120" height="60" as="geometry" />
        </mxCell>
        <mxCell id="uBSbXQaMYAqxOAZdE_ow-1" value="" style="rounded=0;whiteSpace=wrap;html=1;fillColor=#dae8fc;strokeColor=#6c8ebf;" vertex="1" parent="1">
          <mxGeometry x="2370" y="5816.25" width="480" height="300" as="geometry" />
        </mxCell>
        <mxCell id="uBSbXQaMYAqxOAZdE_ow-2" value="" style="rounded=0;whiteSpace=wrap;html=1;fillColor=#d5e8d4;strokeColor=#82b366;" vertex="1" parent="1">
          <mxGeometry x="2120" y="5366.25" width="600" height="390" as="geometry" />
        </mxCell>
        <mxCell id="uBSbXQaMYAqxOAZdE_ow-3" value="" style="rounded=0;whiteSpace=wrap;html=1;fillColor=#f8cecc;strokeColor=#b85450;" vertex="1" parent="1">
          <mxGeometry x="1440.25" y="6976.25" width="599.75" height="405" as="geometry" />
        </mxCell>
        <mxCell id="uBSbXQaMYAqxOAZdE_ow-4" value="" style="rounded=0;whiteSpace=wrap;html=1;fillColor=#ffe6cc;strokeColor=#d79b00;" vertex="1" parent="1">
          <mxGeometry x="1440.25" y="6321.25" width="820" height="635" as="geometry" />
        </mxCell>
        <mxCell id="uBSbXQaMYAqxOAZdE_ow-5" value="" style="rounded=0;whiteSpace=wrap;html=1;fillColor=#dae8fc;strokeColor=#6c8ebf;" vertex="1" parent="1">
          <mxGeometry x="1440.5" y="6066.25" width="170" height="220" as="geometry" />
        </mxCell>
        <mxCell id="uBSbXQaMYAqxOAZdE_ow-6" value="" style="rounded=0;whiteSpace=wrap;html=1;fillColor=#d5e8d4;strokeColor=#82b366;" vertex="1" parent="1">
          <mxGeometry x="1440.25" y="5366.25" width="459.75" height="680" as="geometry" />
        </mxCell>
        <mxCell id="uBSbXQaMYAqxOAZdE_ow-7" style="edgeStyle=orthogonalEdgeStyle;rounded=0;orthogonalLoop=1;jettySize=auto;html=1;entryX=0.5;entryY=0;entryDx=0;entryDy=0;" edge="1" parent="1" source="uBSbXQaMYAqxOAZdE_ow-8" target="uBSbXQaMYAqxOAZdE_ow-11">
          <mxGeometry relative="1" as="geometry" />
        </mxCell>
        <mxCell id="uBSbXQaMYAqxOAZdE_ow-8" value="Tenants" style="rounded=1;whiteSpace=wrap;html=1;fillColor=#dae8fc;strokeColor=#6c8ebf;" vertex="1" parent="1">
          <mxGeometry x="1175" y="4926.25" width="120" height="60" as="geometry" />
        </mxCell>
        <mxCell id="uBSbXQaMYAqxOAZdE_ow-9" value="" style="edgeStyle=orthogonalEdgeStyle;rounded=0;orthogonalLoop=1;jettySize=auto;html=1;entryX=0.5;entryY=0;entryDx=0;entryDy=0;" edge="1" parent="1" source="uBSbXQaMYAqxOAZdE_ow-11" target="uBSbXQaMYAqxOAZdE_ow-16">
          <mxGeometry relative="1" as="geometry">
            <mxPoint x="1235" y="5206.25" as="targetPoint" />
          </mxGeometry>
        </mxCell>
        <mxCell id="uBSbXQaMYAqxOAZdE_ow-10" style="edgeStyle=orthogonalEdgeStyle;rounded=0;orthogonalLoop=1;jettySize=auto;html=1;" edge="1" parent="1" source="uBSbXQaMYAqxOAZdE_ow-11" target="uBSbXQaMYAqxOAZdE_ow-21">
          <mxGeometry relative="1" as="geometry" />
        </mxCell>
        <mxCell id="uBSbXQaMYAqxOAZdE_ow-11" value="&lt;span style=&quot;color: rgb(51, 51, 51);&quot;&gt;tenant-&lt;/span&gt;hgaweb&lt;span style=&quot;color: rgb(51, 51, 51);&quot;&gt;-services&lt;/span&gt;" style="shape=parallelogram;perimeter=parallelogramPerimeter;whiteSpace=wrap;html=1;fixedSize=1;rounded=1;fillColor=#f5f5f5;fontColor=#333333;strokeColor=#666666;" vertex="1" parent="1">
          <mxGeometry x="1140" y="5066.25" width="190" height="60" as="geometry" />
        </mxCell>
        <mxCell id="uBSbXQaMYAqxOAZdE_ow-12" style="edgeStyle=orthogonalEdgeStyle;rounded=0;orthogonalLoop=1;jettySize=auto;html=1;entryX=0;entryY=0.5;entryDx=0;entryDy=0;exitX=0.25;exitY=1;exitDx=0;exitDy=0;" edge="1" parent="1" source="uBSbXQaMYAqxOAZdE_ow-16" target="uBSbXQaMYAqxOAZdE_ow-25">
          <mxGeometry relative="1" as="geometry" />
        </mxCell>
        <mxCell id="uBSbXQaMYAqxOAZdE_ow-13" style="edgeStyle=orthogonalEdgeStyle;rounded=0;orthogonalLoop=1;jettySize=auto;html=1;entryX=0;entryY=0.5;entryDx=0;entryDy=0;exitX=0.25;exitY=1;exitDx=0;exitDy=0;" edge="1" parent="1" source="uBSbXQaMYAqxOAZdE_ow-16" target="uBSbXQaMYAqxOAZdE_ow-31">
          <mxGeometry relative="1" as="geometry" />
        </mxCell>
        <mxCell id="uBSbXQaMYAqxOAZdE_ow-14" style="edgeStyle=orthogonalEdgeStyle;rounded=0;orthogonalLoop=1;jettySize=auto;html=1;entryX=0;entryY=0.5;entryDx=0;entryDy=0;exitX=0.25;exitY=1;exitDx=0;exitDy=0;" edge="1" parent="1" source="uBSbXQaMYAqxOAZdE_ow-16" target="uBSbXQaMYAqxOAZdE_ow-37">
          <mxGeometry relative="1" as="geometry" />
        </mxCell>
        <mxCell id="uBSbXQaMYAqxOAZdE_ow-15" style="edgeStyle=orthogonalEdgeStyle;rounded=0;orthogonalLoop=1;jettySize=auto;html=1;entryX=0;entryY=0.5;entryDx=0;entryDy=0;exitX=0.25;exitY=1;exitDx=0;exitDy=0;" edge="1" parent="1" source="uBSbXQaMYAqxOAZdE_ow-16" target="uBSbXQaMYAqxOAZdE_ow-64">
          <mxGeometry relative="1" as="geometry" />
        </mxCell>
        <mxCell id="uBSbXQaMYAqxOAZdE_ow-16" value="Tenant" style="rounded=1;whiteSpace=wrap;html=1;" vertex="1" parent="1">
          <mxGeometry x="1090" y="5216.25" width="120" height="60" as="geometry" />
        </mxCell>
        <mxCell id="uBSbXQaMYAqxOAZdE_ow-17" style="edgeStyle=orthogonalEdgeStyle;rounded=0;orthogonalLoop=1;jettySize=auto;html=1;entryX=0;entryY=0.5;entryDx=0;entryDy=0;" edge="1" parent="1" source="uBSbXQaMYAqxOAZdE_ow-21" target="uBSbXQaMYAqxOAZdE_ow-82">
          <mxGeometry relative="1" as="geometry" />
        </mxCell>
        <mxCell id="uBSbXQaMYAqxOAZdE_ow-18" style="edgeStyle=orthogonalEdgeStyle;rounded=0;orthogonalLoop=1;jettySize=auto;html=1;entryX=0;entryY=0.5;entryDx=0;entryDy=0;" edge="1" parent="1" source="uBSbXQaMYAqxOAZdE_ow-21" target="uBSbXQaMYAqxOAZdE_ow-84">
          <mxGeometry relative="1" as="geometry" />
        </mxCell>
        <mxCell id="uBSbXQaMYAqxOAZdE_ow-19" style="edgeStyle=orthogonalEdgeStyle;rounded=0;orthogonalLoop=1;jettySize=auto;html=1;entryX=0;entryY=0.5;entryDx=0;entryDy=0;" edge="1" parent="1" source="uBSbXQaMYAqxOAZdE_ow-21" target="uBSbXQaMYAqxOAZdE_ow-172">
          <mxGeometry relative="1" as="geometry" />
        </mxCell>
        <mxCell id="uBSbXQaMYAqxOAZdE_ow-20" style="edgeStyle=orthogonalEdgeStyle;rounded=0;orthogonalLoop=1;jettySize=auto;html=1;entryX=0;entryY=0.5;entryDx=0;entryDy=0;" edge="1" parent="1" source="uBSbXQaMYAqxOAZdE_ow-21" target="uBSbXQaMYAqxOAZdE_ow-86">
          <mxGeometry relative="1" as="geometry" />
        </mxCell>
        <mxCell id="uBSbXQaMYAqxOAZdE_ow-21" value="UserTenant" style="rounded=1;whiteSpace=wrap;html=1;" vertex="1" parent="1">
          <mxGeometry x="1870.13" y="5193.75" width="120" height="60" as="geometry" />
        </mxCell>
        <mxCell id="uBSbXQaMYAqxOAZdE_ow-22" style="edgeStyle=orthogonalEdgeStyle;rounded=0;orthogonalLoop=1;jettySize=auto;html=1;entryX=0.5;entryY=0;entryDx=0;entryDy=0;" edge="1" parent="1" source="uBSbXQaMYAqxOAZdE_ow-24">
          <mxGeometry relative="1" as="geometry">
            <mxPoint x="1800.25" y="5496.25" as="targetPoint" />
          </mxGeometry>
        </mxCell>
        <mxCell id="uBSbXQaMYAqxOAZdE_ow-23" value="" style="edgeStyle=orthogonalEdgeStyle;rounded=0;orthogonalLoop=1;jettySize=auto;html=1;" edge="1" parent="1" source="uBSbXQaMYAqxOAZdE_ow-24" target="uBSbXQaMYAqxOAZdE_ow-28">
          <mxGeometry relative="1" as="geometry" />
        </mxCell>
        <mxCell id="uBSbXQaMYAqxOAZdE_ow-24" value="isNew" style="rhombus;whiteSpace=wrap;html=1;" vertex="1" parent="1">
          <mxGeometry x="1620.25" y="5386.25" width="80" height="80" as="geometry" />
        </mxCell>
        <mxCell id="uBSbXQaMYAqxOAZdE_ow-25" value="POST" style="rounded=0;whiteSpace=wrap;html=1;fillColor=#d5e8d4;strokeColor=#82b366;" vertex="1" parent="1">
          <mxGeometry x="1140" y="5336.25" width="70" height="30" as="geometry" />
        </mxCell>
        <mxCell id="uBSbXQaMYAqxOAZdE_ow-26" style="edgeStyle=orthogonalEdgeStyle;rounded=0;orthogonalLoop=1;jettySize=auto;html=1;entryX=0.5;entryY=0;entryDx=0;entryDy=0;" edge="1" parent="1" source="uBSbXQaMYAqxOAZdE_ow-25" target="uBSbXQaMYAqxOAZdE_ow-24">
          <mxGeometry relative="1" as="geometry" />
        </mxCell>
        <mxCell id="uBSbXQaMYAqxOAZdE_ow-27" value="Yes" style="text;html=1;align=center;verticalAlign=middle;whiteSpace=wrap;rounded=0;" vertex="1" parent="1">
          <mxGeometry x="1700.25" y="5396.25" width="60" height="30" as="geometry" />
        </mxCell>
        <mxCell id="uBSbXQaMYAqxOAZdE_ow-28" value="Erro" style="whiteSpace=wrap;html=1;" vertex="1" parent="1">
          <mxGeometry x="1470.25" y="5486.25" width="120" height="60" as="geometry" />
        </mxCell>
        <mxCell id="uBSbXQaMYAqxOAZdE_ow-29" value="No" style="text;html=1;align=center;verticalAlign=middle;whiteSpace=wrap;rounded=0;" vertex="1" parent="1">
          <mxGeometry x="1560.25" y="5396.25" width="60" height="30" as="geometry" />
        </mxCell>
        <mxCell id="uBSbXQaMYAqxOAZdE_ow-30" style="edgeStyle=orthogonalEdgeStyle;rounded=0;orthogonalLoop=1;jettySize=auto;html=1;entryX=0.5;entryY=0;entryDx=0;entryDy=0;" edge="1" parent="1" source="uBSbXQaMYAqxOAZdE_ow-31" target="uBSbXQaMYAqxOAZdE_ow-32">
          <mxGeometry relative="1" as="geometry">
            <Array as="points">
              <mxPoint x="1430" y="5401.25" />
              <mxPoint x="1430" y="6056.25" />
              <mxPoint x="1526" y="6056.25" />
            </Array>
          </mxGeometry>
        </mxCell>
        <mxCell id="uBSbXQaMYAqxOAZdE_ow-31" value="GET" style="rounded=0;whiteSpace=wrap;html=1;fillColor=#dae8fc;strokeColor=#6c8ebf;" vertex="1" parent="1">
          <mxGeometry x="1140" y="5386.25" width="70" height="30" as="geometry" />
        </mxCell>
        <mxCell id="uBSbXQaMYAqxOAZdE_ow-32" value="TenantId" style="shape=process;whiteSpace=wrap;html=1;backgroundOutline=1;" vertex="1" parent="1">
          <mxGeometry x="1465.75" y="6095.25" width="120" height="30" as="geometry" />
        </mxCell>
        <mxCell id="uBSbXQaMYAqxOAZdE_ow-33" value="Tenants" style="rounded=1;whiteSpace=wrap;html=1;" vertex="1" parent="1">
          <mxGeometry x="1465.75" y="6206.25" width="120" height="60" as="geometry" />
        </mxCell>
        <mxCell id="uBSbXQaMYAqxOAZdE_ow-34" style="edgeStyle=orthogonalEdgeStyle;rounded=0;orthogonalLoop=1;jettySize=auto;html=1;entryX=0.5;entryY=0;entryDx=0;entryDy=0;" edge="1" parent="1" source="uBSbXQaMYAqxOAZdE_ow-35" target="uBSbXQaMYAqxOAZdE_ow-33">
          <mxGeometry relative="1" as="geometry" />
        </mxCell>
        <mxCell id="uBSbXQaMYAqxOAZdE_ow-35" value="UserId" style="shape=process;whiteSpace=wrap;html=1;backgroundOutline=1;" vertex="1" parent="1">
          <mxGeometry x="1465.75" y="6125.25" width="120" height="30" as="geometry" />
        </mxCell>
        <mxCell id="uBSbXQaMYAqxOAZdE_ow-36" style="edgeStyle=orthogonalEdgeStyle;rounded=0;orthogonalLoop=1;jettySize=auto;html=1;exitX=1;exitY=0.5;exitDx=0;exitDy=0;entryX=0.5;entryY=0;entryDx=0;entryDy=0;" edge="1" parent="1" source="uBSbXQaMYAqxOAZdE_ow-37" target="uBSbXQaMYAqxOAZdE_ow-43">
          <mxGeometry relative="1" as="geometry">
            <mxPoint x="1650" y="5986.25" as="targetPoint" />
            <Array as="points">
              <mxPoint x="1420" y="5451.25" />
              <mxPoint x="1420" y="6306.25" />
              <mxPoint x="1651" y="6306.25" />
            </Array>
          </mxGeometry>
        </mxCell>
        <mxCell id="uBSbXQaMYAqxOAZdE_ow-37" value="PUT" style="rounded=0;whiteSpace=wrap;html=1;fillColor=#ffe6cc;strokeColor=#d79b00;" vertex="1" parent="1">
          <mxGeometry x="1140" y="5436.25" width="70" height="30" as="geometry" />
        </mxCell>
        <mxCell id="uBSbXQaMYAqxOAZdE_ow-38" style="edgeStyle=orthogonalEdgeStyle;rounded=0;orthogonalLoop=1;jettySize=auto;html=1;" edge="1" parent="1" source="uBSbXQaMYAqxOAZdE_ow-40">
          <mxGeometry relative="1" as="geometry">
            <mxPoint x="1830.25" y="6536.25" as="targetPoint" />
          </mxGeometry>
        </mxCell>
        <mxCell id="uBSbXQaMYAqxOAZdE_ow-39" style="edgeStyle=orthogonalEdgeStyle;rounded=0;orthogonalLoop=1;jettySize=auto;html=1;" edge="1" parent="1" source="uBSbXQaMYAqxOAZdE_ow-40" target="uBSbXQaMYAqxOAZdE_ow-51">
          <mxGeometry relative="1" as="geometry" />
        </mxCell>
        <mxCell id="uBSbXQaMYAqxOAZdE_ow-40" value="isMy" style="rhombus;whiteSpace=wrap;html=1;" vertex="1" parent="1">
          <mxGeometry x="1610.5" y="6446.25" width="80" height="80" as="geometry" />
        </mxCell>
        <mxCell id="uBSbXQaMYAqxOAZdE_ow-41" style="edgeStyle=orthogonalEdgeStyle;rounded=0;orthogonalLoop=1;jettySize=auto;html=1;" edge="1" parent="1" source="uBSbXQaMYAqxOAZdE_ow-42" target="uBSbXQaMYAqxOAZdE_ow-40">
          <mxGeometry relative="1" as="geometry" />
        </mxCell>
        <mxCell id="uBSbXQaMYAqxOAZdE_ow-42" value="UserId" style="shape=process;whiteSpace=wrap;html=1;backgroundOutline=1;" vertex="1" parent="1">
          <mxGeometry x="1590.5" y="6366.25" width="120" height="30" as="geometry" />
        </mxCell>
        <mxCell id="uBSbXQaMYAqxOAZdE_ow-43" value="TenantId" style="shape=process;whiteSpace=wrap;html=1;backgroundOutline=1;" vertex="1" parent="1">
          <mxGeometry x="1590.5" y="6336.25" width="120" height="30" as="geometry" />
        </mxCell>
        <mxCell id="uBSbXQaMYAqxOAZdE_ow-44" value="Yes" style="text;html=1;align=center;verticalAlign=middle;whiteSpace=wrap;rounded=0;" vertex="1" parent="1">
          <mxGeometry x="1690.5" y="6456.25" width="60" height="30" as="geometry" />
        </mxCell>
        <mxCell id="uBSbXQaMYAqxOAZdE_ow-45" value="No" style="text;html=1;align=center;verticalAlign=middle;whiteSpace=wrap;rounded=0;" vertex="1" parent="1">
          <mxGeometry x="1550.5" y="6456.25" width="60" height="30" as="geometry" />
        </mxCell>
        <mxCell id="uBSbXQaMYAqxOAZdE_ow-46" style="edgeStyle=orthogonalEdgeStyle;rounded=0;orthogonalLoop=1;jettySize=auto;html=1;" edge="1" parent="1" source="uBSbXQaMYAqxOAZdE_ow-48" target="uBSbXQaMYAqxOAZdE_ow-52">
          <mxGeometry relative="1" as="geometry" />
        </mxCell>
        <mxCell id="uBSbXQaMYAqxOAZdE_ow-47" style="edgeStyle=orthogonalEdgeStyle;rounded=0;orthogonalLoop=1;jettySize=auto;html=1;" edge="1" parent="1" source="uBSbXQaMYAqxOAZdE_ow-48">
          <mxGeometry relative="1" as="geometry">
            <mxPoint x="1970.25" y="6636.25" as="targetPoint" />
          </mxGeometry>
        </mxCell>
        <mxCell id="uBSbXQaMYAqxOAZdE_ow-48" value="IsAdmin" style="rhombus;whiteSpace=wrap;html=1;" vertex="1" parent="1">
          <mxGeometry x="1790.25" y="6536.25" width="80" height="80" as="geometry" />
        </mxCell>
        <mxCell id="uBSbXQaMYAqxOAZdE_ow-49" value="Yes" style="text;html=1;align=center;verticalAlign=middle;whiteSpace=wrap;rounded=0;" vertex="1" parent="1">
          <mxGeometry x="1870.25" y="6546.25" width="60" height="30" as="geometry" />
        </mxCell>
        <mxCell id="uBSbXQaMYAqxOAZdE_ow-50" value="No" style="text;html=1;align=center;verticalAlign=middle;whiteSpace=wrap;rounded=0;" vertex="1" parent="1">
          <mxGeometry x="1730.5" y="6546.25" width="60" height="30" as="geometry" />
        </mxCell>
        <mxCell id="uBSbXQaMYAqxOAZdE_ow-51" value="Erro" style="whiteSpace=wrap;html=1;" vertex="1" parent="1">
          <mxGeometry x="1450.25" y="6546.25" width="120" height="60" as="geometry" />
        </mxCell>
        <mxCell id="uBSbXQaMYAqxOAZdE_ow-52" value="Erro" style="whiteSpace=wrap;html=1;" vertex="1" parent="1">
          <mxGeometry x="1650.25" y="6636.25" width="120" height="60" as="geometry" />
        </mxCell>
        <mxCell id="uBSbXQaMYAqxOAZdE_ow-53" value="Update" style="rounded=1;whiteSpace=wrap;html=1;" vertex="1" parent="1">
          <mxGeometry x="2120.25" y="6876.25" width="120" height="60" as="geometry" />
        </mxCell>
        <mxCell id="uBSbXQaMYAqxOAZdE_ow-54" style="edgeStyle=orthogonalEdgeStyle;rounded=0;orthogonalLoop=1;jettySize=auto;html=1;entryX=0.5;entryY=0;entryDx=0;entryDy=0;" edge="1" parent="1" source="uBSbXQaMYAqxOAZdE_ow-55" target="uBSbXQaMYAqxOAZdE_ow-59">
          <mxGeometry relative="1" as="geometry">
            <Array as="points">
              <mxPoint x="1970.25" y="6726.25" />
              <mxPoint x="2030.25" y="6726.25" />
            </Array>
          </mxGeometry>
        </mxCell>
        <mxCell id="uBSbXQaMYAqxOAZdE_ow-55" value="slug" style="shape=process;whiteSpace=wrap;html=1;backgroundOutline=1;" vertex="1" parent="1">
          <mxGeometry x="1910.25" y="6666.25" width="120" height="30" as="geometry" />
        </mxCell>
        <mxCell id="uBSbXQaMYAqxOAZdE_ow-56" value="name" style="shape=process;whiteSpace=wrap;html=1;backgroundOutline=1;" vertex="1" parent="1">
          <mxGeometry x="1910.25" y="6636.25" width="120" height="30" as="geometry" />
        </mxCell>
        <mxCell id="uBSbXQaMYAqxOAZdE_ow-57" style="edgeStyle=orthogonalEdgeStyle;rounded=0;orthogonalLoop=1;jettySize=auto;html=1;" edge="1" parent="1" source="uBSbXQaMYAqxOAZdE_ow-59" target="uBSbXQaMYAqxOAZdE_ow-53">
          <mxGeometry relative="1" as="geometry" />
        </mxCell>
        <mxCell id="uBSbXQaMYAqxOAZdE_ow-58" style="edgeStyle=orthogonalEdgeStyle;rounded=0;orthogonalLoop=1;jettySize=auto;html=1;" edge="1" parent="1" source="uBSbXQaMYAqxOAZdE_ow-59" target="uBSbXQaMYAqxOAZdE_ow-61">
          <mxGeometry relative="1" as="geometry" />
        </mxCell>
        <mxCell id="uBSbXQaMYAqxOAZdE_ow-59" value="slug&lt;div&gt;not&lt;br&gt;exists&lt;/div&gt;" style="rhombus;whiteSpace=wrap;html=1;" vertex="1" parent="1">
          <mxGeometry x="1990.25" y="6756.25" width="80" height="80" as="geometry" />
        </mxCell>
        <mxCell id="uBSbXQaMYAqxOAZdE_ow-60" value="Yes" style="text;html=1;align=center;verticalAlign=middle;whiteSpace=wrap;rounded=0;" vertex="1" parent="1">
          <mxGeometry x="2070.25" y="6766.25" width="60" height="30" as="geometry" />
        </mxCell>
        <mxCell id="uBSbXQaMYAqxOAZdE_ow-61" value="Erro" style="whiteSpace=wrap;html=1;" vertex="1" parent="1">
          <mxGeometry x="1830.25" y="6876.25" width="120" height="60" as="geometry" />
        </mxCell>
        <mxCell id="uBSbXQaMYAqxOAZdE_ow-62" value="No" style="text;html=1;align=center;verticalAlign=middle;whiteSpace=wrap;rounded=0;" vertex="1" parent="1">
          <mxGeometry x="1931.25" y="6766.25" width="60" height="30" as="geometry" />
        </mxCell>
        <mxCell id="uBSbXQaMYAqxOAZdE_ow-63" style="edgeStyle=orthogonalEdgeStyle;rounded=0;orthogonalLoop=1;jettySize=auto;html=1;entryX=0.5;entryY=0;entryDx=0;entryDy=0;" edge="1" parent="1" source="uBSbXQaMYAqxOAZdE_ow-64" target="uBSbXQaMYAqxOAZdE_ow-70">
          <mxGeometry relative="1" as="geometry">
            <Array as="points">
              <mxPoint x="1410" y="5501.25" />
              <mxPoint x="1410" y="6616.25" />
              <mxPoint x="1650" y="6616.25" />
            </Array>
          </mxGeometry>
        </mxCell>
        <mxCell id="uBSbXQaMYAqxOAZdE_ow-64" value="DELETE" style="rounded=0;whiteSpace=wrap;html=1;fillColor=#f8cecc;strokeColor=#b85450;" vertex="1" parent="1">
          <mxGeometry x="1140" y="5486.25" width="70" height="30" as="geometry" />
        </mxCell>
        <mxCell id="uBSbXQaMYAqxOAZdE_ow-65" style="edgeStyle=orthogonalEdgeStyle;rounded=0;orthogonalLoop=1;jettySize=auto;html=1;" edge="1" parent="1" source="uBSbXQaMYAqxOAZdE_ow-67">
          <mxGeometry relative="1" as="geometry">
            <mxPoint x="1830.13" y="7196.25" as="targetPoint" />
          </mxGeometry>
        </mxCell>
        <mxCell id="uBSbXQaMYAqxOAZdE_ow-66" style="edgeStyle=orthogonalEdgeStyle;rounded=0;orthogonalLoop=1;jettySize=auto;html=1;" edge="1" parent="1" source="uBSbXQaMYAqxOAZdE_ow-67" target="uBSbXQaMYAqxOAZdE_ow-78">
          <mxGeometry relative="1" as="geometry" />
        </mxCell>
        <mxCell id="uBSbXQaMYAqxOAZdE_ow-67" value="isMy" style="rhombus;whiteSpace=wrap;html=1;" vertex="1" parent="1">
          <mxGeometry x="1610.38" y="7106.25" width="80" height="80" as="geometry" />
        </mxCell>
        <mxCell id="uBSbXQaMYAqxOAZdE_ow-68" style="edgeStyle=orthogonalEdgeStyle;rounded=0;orthogonalLoop=1;jettySize=auto;html=1;" edge="1" parent="1" source="uBSbXQaMYAqxOAZdE_ow-69" target="uBSbXQaMYAqxOAZdE_ow-67">
          <mxGeometry relative="1" as="geometry" />
        </mxCell>
        <mxCell id="uBSbXQaMYAqxOAZdE_ow-69" value="UserId" style="shape=process;whiteSpace=wrap;html=1;backgroundOutline=1;" vertex="1" parent="1">
          <mxGeometry x="1590.38" y="7026.25" width="120" height="30" as="geometry" />
        </mxCell>
        <mxCell id="uBSbXQaMYAqxOAZdE_ow-70" value="TenantId" style="shape=process;whiteSpace=wrap;html=1;backgroundOutline=1;" vertex="1" parent="1">
          <mxGeometry x="1590.38" y="6996.25" width="120" height="30" as="geometry" />
        </mxCell>
        <mxCell id="uBSbXQaMYAqxOAZdE_ow-71" value="Yes" style="text;html=1;align=center;verticalAlign=middle;whiteSpace=wrap;rounded=0;" vertex="1" parent="1">
          <mxGeometry x="1690.38" y="7116.25" width="60" height="30" as="geometry" />
        </mxCell>
        <mxCell id="uBSbXQaMYAqxOAZdE_ow-72" value="No" style="text;html=1;align=center;verticalAlign=middle;whiteSpace=wrap;rounded=0;" vertex="1" parent="1">
          <mxGeometry x="1550.38" y="7116.25" width="60" height="30" as="geometry" />
        </mxCell>
        <mxCell id="uBSbXQaMYAqxOAZdE_ow-73" style="edgeStyle=orthogonalEdgeStyle;rounded=0;orthogonalLoop=1;jettySize=auto;html=1;" edge="1" parent="1" source="uBSbXQaMYAqxOAZdE_ow-75" target="uBSbXQaMYAqxOAZdE_ow-79">
          <mxGeometry relative="1" as="geometry" />
        </mxCell>
        <mxCell id="uBSbXQaMYAqxOAZdE_ow-74" style="edgeStyle=orthogonalEdgeStyle;rounded=0;orthogonalLoop=1;jettySize=auto;html=1;entryX=0.5;entryY=0;entryDx=0;entryDy=0;" edge="1" parent="1" source="uBSbXQaMYAqxOAZdE_ow-75" target="uBSbXQaMYAqxOAZdE_ow-80">
          <mxGeometry relative="1" as="geometry">
            <mxPoint x="1970.13" y="7296.25" as="targetPoint" />
          </mxGeometry>
        </mxCell>
        <mxCell id="uBSbXQaMYAqxOAZdE_ow-75" value="IsAdmin" style="rhombus;whiteSpace=wrap;html=1;" vertex="1" parent="1">
          <mxGeometry x="1790.13" y="7196.25" width="80" height="80" as="geometry" />
        </mxCell>
        <mxCell id="uBSbXQaMYAqxOAZdE_ow-76" value="Yes" style="text;html=1;align=center;verticalAlign=middle;whiteSpace=wrap;rounded=0;" vertex="1" parent="1">
          <mxGeometry x="1870.13" y="7206.25" width="60" height="30" as="geometry" />
        </mxCell>
        <mxCell id="uBSbXQaMYAqxOAZdE_ow-77" value="No" style="text;html=1;align=center;verticalAlign=middle;whiteSpace=wrap;rounded=0;" vertex="1" parent="1">
          <mxGeometry x="1730.38" y="7206.25" width="60" height="30" as="geometry" />
        </mxCell>
        <mxCell id="uBSbXQaMYAqxOAZdE_ow-78" value="Erro" style="whiteSpace=wrap;html=1;" vertex="1" parent="1">
          <mxGeometry x="1450.13" y="7206.25" width="120" height="60" as="geometry" />
        </mxCell>
        <mxCell id="uBSbXQaMYAqxOAZdE_ow-79" value="Erro" style="whiteSpace=wrap;html=1;" vertex="1" parent="1">
          <mxGeometry x="1650.13" y="7296.25" width="120" height="60" as="geometry" />
        </mxCell>
        <mxCell id="uBSbXQaMYAqxOAZdE_ow-80" value="Delete" style="rounded=1;whiteSpace=wrap;html=1;" vertex="1" parent="1">
          <mxGeometry x="1909.88" y="7294.25" width="120" height="60" as="geometry" />
        </mxCell>
        <mxCell id="uBSbXQaMYAqxOAZdE_ow-81" style="edgeStyle=orthogonalEdgeStyle;rounded=0;orthogonalLoop=1;jettySize=auto;html=1;entryX=0.5;entryY=0;entryDx=0;entryDy=0;" edge="1" parent="1" source="uBSbXQaMYAqxOAZdE_ow-82" target="uBSbXQaMYAqxOAZdE_ow-92">
          <mxGeometry relative="1" as="geometry" />
        </mxCell>
        <mxCell id="uBSbXQaMYAqxOAZdE_ow-82" value="POST" style="rounded=0;whiteSpace=wrap;html=1;fillColor=#d5e8d4;strokeColor=#82b366;" vertex="1" parent="1">
          <mxGeometry x="1965.25" y="5336.25" width="70" height="30" as="geometry" />
        </mxCell>
        <mxCell id="uBSbXQaMYAqxOAZdE_ow-83" style="edgeStyle=orthogonalEdgeStyle;rounded=0;orthogonalLoop=1;jettySize=auto;html=1;entryX=0.5;entryY=0;entryDx=0;entryDy=0;" edge="1" parent="1" source="uBSbXQaMYAqxOAZdE_ow-84" target="uBSbXQaMYAqxOAZdE_ow-103">
          <mxGeometry relative="1" as="geometry">
            <Array as="points">
              <mxPoint x="2080" y="5401.25" />
              <mxPoint x="2080" y="5786.25" />
              <mxPoint x="2580" y="5786.25" />
            </Array>
          </mxGeometry>
        </mxCell>
        <mxCell id="uBSbXQaMYAqxOAZdE_ow-84" value="GET" style="rounded=0;whiteSpace=wrap;html=1;fillColor=#dae8fc;strokeColor=#6c8ebf;" vertex="1" parent="1">
          <mxGeometry x="1965.25" y="5386.25" width="70" height="30" as="geometry" />
        </mxCell>
        <mxCell id="uBSbXQaMYAqxOAZdE_ow-85" style="edgeStyle=orthogonalEdgeStyle;rounded=0;orthogonalLoop=1;jettySize=auto;html=1;entryX=0.5;entryY=0;entryDx=0;entryDy=0;" edge="1" parent="1" source="uBSbXQaMYAqxOAZdE_ow-86" target="uBSbXQaMYAqxOAZdE_ow-134">
          <mxGeometry relative="1" as="geometry">
            <mxPoint x="2580" y="6184.25" as="targetPoint" />
            <Array as="points">
              <mxPoint x="2060" y="5501.25" />
              <mxPoint x="2060" y="5836.25" />
              <mxPoint x="2320" y="5836.25" />
              <mxPoint x="2320" y="6966.25" />
              <mxPoint x="2630" y="6966.25" />
              <mxPoint x="2630" y="7010.25" />
            </Array>
          </mxGeometry>
        </mxCell>
        <mxCell id="uBSbXQaMYAqxOAZdE_ow-86" value="DELETE" style="rounded=0;whiteSpace=wrap;html=1;fillColor=#f8cecc;strokeColor=#b85450;" vertex="1" parent="1">
          <mxGeometry x="1965.25" y="5486.25" width="70" height="30" as="geometry" />
        </mxCell>
        <mxCell id="uBSbXQaMYAqxOAZdE_ow-87" style="edgeStyle=orthogonalEdgeStyle;rounded=0;orthogonalLoop=1;jettySize=auto;html=1;" edge="1" parent="1" source="uBSbXQaMYAqxOAZdE_ow-89">
          <mxGeometry relative="1" as="geometry">
            <mxPoint x="2510" y="5585.25" as="targetPoint" />
          </mxGeometry>
        </mxCell>
        <mxCell id="uBSbXQaMYAqxOAZdE_ow-88" style="edgeStyle=orthogonalEdgeStyle;rounded=0;orthogonalLoop=1;jettySize=auto;html=1;" edge="1" parent="1" source="uBSbXQaMYAqxOAZdE_ow-89" target="uBSbXQaMYAqxOAZdE_ow-100">
          <mxGeometry relative="1" as="geometry" />
        </mxCell>
        <mxCell id="uBSbXQaMYAqxOAZdE_ow-89" value="isMy" style="rhombus;whiteSpace=wrap;html=1;" vertex="1" parent="1">
          <mxGeometry x="2290.25" y="5495.25" width="80" height="80" as="geometry" />
        </mxCell>
        <mxCell id="uBSbXQaMYAqxOAZdE_ow-90" style="edgeStyle=orthogonalEdgeStyle;rounded=0;orthogonalLoop=1;jettySize=auto;html=1;" edge="1" parent="1" source="uBSbXQaMYAqxOAZdE_ow-91" target="uBSbXQaMYAqxOAZdE_ow-89">
          <mxGeometry relative="1" as="geometry" />
        </mxCell>
        <mxCell id="uBSbXQaMYAqxOAZdE_ow-91" value="UserId" style="shape=process;whiteSpace=wrap;html=1;backgroundOutline=1;" vertex="1" parent="1">
          <mxGeometry x="2270.25" y="5415.25" width="120" height="30" as="geometry" />
        </mxCell>
        <mxCell id="uBSbXQaMYAqxOAZdE_ow-92" value="TenantId" style="shape=process;whiteSpace=wrap;html=1;backgroundOutline=1;" vertex="1" parent="1">
          <mxGeometry x="2270.25" y="5385.25" width="120" height="30" as="geometry" />
        </mxCell>
        <mxCell id="uBSbXQaMYAqxOAZdE_ow-93" value="Yes" style="text;html=1;align=center;verticalAlign=middle;whiteSpace=wrap;rounded=0;" vertex="1" parent="1">
          <mxGeometry x="2370.25" y="5505.25" width="60" height="30" as="geometry" />
        </mxCell>
        <mxCell id="uBSbXQaMYAqxOAZdE_ow-94" value="No" style="text;html=1;align=center;verticalAlign=middle;whiteSpace=wrap;rounded=0;" vertex="1" parent="1">
          <mxGeometry x="2230.25" y="5505.25" width="60" height="30" as="geometry" />
        </mxCell>
        <mxCell id="uBSbXQaMYAqxOAZdE_ow-95" style="edgeStyle=orthogonalEdgeStyle;rounded=0;orthogonalLoop=1;jettySize=auto;html=1;" edge="1" parent="1" source="uBSbXQaMYAqxOAZdE_ow-97" target="uBSbXQaMYAqxOAZdE_ow-101">
          <mxGeometry relative="1" as="geometry" />
        </mxCell>
        <mxCell id="uBSbXQaMYAqxOAZdE_ow-96" style="edgeStyle=orthogonalEdgeStyle;rounded=0;orthogonalLoop=1;jettySize=auto;html=1;entryX=0.5;entryY=0.017;entryDx=0;entryDy=0;entryPerimeter=0;" edge="1" parent="1" source="uBSbXQaMYAqxOAZdE_ow-97" target="uBSbXQaMYAqxOAZdE_ow-102">
          <mxGeometry relative="1" as="geometry">
            <mxPoint x="2650" y="5696.25" as="targetPoint" />
          </mxGeometry>
        </mxCell>
        <mxCell id="uBSbXQaMYAqxOAZdE_ow-97" value="IsAdmin" style="rhombus;whiteSpace=wrap;html=1;" vertex="1" parent="1">
          <mxGeometry x="2470" y="5585.25" width="80" height="80" as="geometry" />
        </mxCell>
        <mxCell id="uBSbXQaMYAqxOAZdE_ow-98" value="Yes" style="text;html=1;align=center;verticalAlign=middle;whiteSpace=wrap;rounded=0;" vertex="1" parent="1">
          <mxGeometry x="2550" y="5595.25" width="60" height="30" as="geometry" />
        </mxCell>
        <mxCell id="uBSbXQaMYAqxOAZdE_ow-99" value="No" style="text;html=1;align=center;verticalAlign=middle;whiteSpace=wrap;rounded=0;" vertex="1" parent="1">
          <mxGeometry x="2410.25" y="5595.25" width="60" height="30" as="geometry" />
        </mxCell>
        <mxCell id="uBSbXQaMYAqxOAZdE_ow-100" value="Erro" style="whiteSpace=wrap;html=1;" vertex="1" parent="1">
          <mxGeometry x="2130" y="5595.25" width="120" height="60" as="geometry" />
        </mxCell>
        <mxCell id="uBSbXQaMYAqxOAZdE_ow-101" value="Erro" style="whiteSpace=wrap;html=1;" vertex="1" parent="1">
          <mxGeometry x="2330" y="5685.25" width="120" height="60" as="geometry" />
        </mxCell>
        <mxCell id="uBSbXQaMYAqxOAZdE_ow-102" value="Create" style="rounded=1;whiteSpace=wrap;html=1;" vertex="1" parent="1">
          <mxGeometry x="2590" y="5685.25" width="120" height="60" as="geometry" />
        </mxCell>
        <mxCell id="uBSbXQaMYAqxOAZdE_ow-103" value="TenantId" style="shape=process;whiteSpace=wrap;html=1;backgroundOutline=1;" vertex="1" parent="1">
          <mxGeometry x="2520.25" y="5834.25" width="120" height="30" as="geometry" />
        </mxCell>
        <mxCell id="uBSbXQaMYAqxOAZdE_ow-104" style="edgeStyle=orthogonalEdgeStyle;rounded=0;orthogonalLoop=1;jettySize=auto;html=1;" edge="1" parent="1" source="uBSbXQaMYAqxOAZdE_ow-105" target="uBSbXQaMYAqxOAZdE_ow-109">
          <mxGeometry relative="1" as="geometry" />
        </mxCell>
        <mxCell id="uBSbXQaMYAqxOAZdE_ow-105" value="UserId" style="shape=process;whiteSpace=wrap;html=1;backgroundOutline=1;" vertex="1" parent="1">
          <mxGeometry x="2520.25" y="5864.25" width="120" height="30" as="geometry" />
        </mxCell>
        <mxCell id="uBSbXQaMYAqxOAZdE_ow-106" value="UserTenants" style="rounded=1;whiteSpace=wrap;html=1;" vertex="1" parent="1">
          <mxGeometry x="2718" y="6046.25" width="120" height="60" as="geometry" />
        </mxCell>
        <mxCell id="uBSbXQaMYAqxOAZdE_ow-107" style="edgeStyle=orthogonalEdgeStyle;rounded=0;orthogonalLoop=1;jettySize=auto;html=1;entryX=0.5;entryY=0;entryDx=0;entryDy=0;" edge="1" parent="1" source="uBSbXQaMYAqxOAZdE_ow-109" target="uBSbXQaMYAqxOAZdE_ow-106">
          <mxGeometry relative="1" as="geometry">
            <mxPoint x="2679.75" y="6026.25" as="targetPoint" />
          </mxGeometry>
        </mxCell>
        <mxCell id="uBSbXQaMYAqxOAZdE_ow-108" style="edgeStyle=orthogonalEdgeStyle;rounded=0;orthogonalLoop=1;jettySize=auto;html=1;entryX=0.5;entryY=0;entryDx=0;entryDy=0;" edge="1" parent="1" source="uBSbXQaMYAqxOAZdE_ow-109" target="uBSbXQaMYAqxOAZdE_ow-112">
          <mxGeometry relative="1" as="geometry">
            <mxPoint x="2440" y="6046.25" as="targetPoint" />
          </mxGeometry>
        </mxCell>
        <mxCell id="uBSbXQaMYAqxOAZdE_ow-109" value="isMy" style="rhombus;whiteSpace=wrap;html=1;" vertex="1" parent="1">
          <mxGeometry x="2540.25" y="5936.25" width="80" height="80" as="geometry" />
        </mxCell>
        <mxCell id="uBSbXQaMYAqxOAZdE_ow-110" value="Yes" style="text;html=1;align=center;verticalAlign=middle;whiteSpace=wrap;rounded=0;" vertex="1" parent="1">
          <mxGeometry x="2620.25" y="5946.25" width="60" height="30" as="geometry" />
        </mxCell>
        <mxCell id="uBSbXQaMYAqxOAZdE_ow-111" value="No" style="text;html=1;align=center;verticalAlign=middle;whiteSpace=wrap;rounded=0;" vertex="1" parent="1">
          <mxGeometry x="2480.25" y="5946.25" width="60" height="30" as="geometry" />
        </mxCell>
        <mxCell id="uBSbXQaMYAqxOAZdE_ow-112" value="Erro" style="whiteSpace=wrap;html=1;" vertex="1" parent="1">
          <mxGeometry x="2380.25" y="6046.25" width="120" height="60" as="geometry" />
        </mxCell>
        <mxCell id="uBSbXQaMYAqxOAZdE_ow-113" style="edgeStyle=orthogonalEdgeStyle;rounded=0;orthogonalLoop=1;jettySize=auto;html=1;entryX=0.5;entryY=0;entryDx=0;entryDy=0;" edge="1" parent="1" source="uBSbXQaMYAqxOAZdE_ow-114" target="uBSbXQaMYAqxOAZdE_ow-118">
          <mxGeometry relative="1" as="geometry">
            <Array as="points">
              <mxPoint x="1800" y="5586.25" />
              <mxPoint x="1680" y="5586.25" />
            </Array>
          </mxGeometry>
        </mxCell>
        <mxCell id="uBSbXQaMYAqxOAZdE_ow-114" value="slug" style="shape=process;whiteSpace=wrap;html=1;backgroundOutline=1;" vertex="1" parent="1">
          <mxGeometry x="1739.88" y="5525.25" width="120" height="30" as="geometry" />
        </mxCell>
        <mxCell id="uBSbXQaMYAqxOAZdE_ow-115" value="name" style="shape=process;whiteSpace=wrap;html=1;backgroundOutline=1;" vertex="1" parent="1">
          <mxGeometry x="1739.88" y="5495.25" width="120" height="31" as="geometry" />
        </mxCell>
        <mxCell id="uBSbXQaMYAqxOAZdE_ow-116" style="edgeStyle=orthogonalEdgeStyle;rounded=0;orthogonalLoop=1;jettySize=auto;html=1;" edge="1" parent="1" source="uBSbXQaMYAqxOAZdE_ow-118" target="uBSbXQaMYAqxOAZdE_ow-120">
          <mxGeometry relative="1" as="geometry" />
        </mxCell>
        <mxCell id="uBSbXQaMYAqxOAZdE_ow-117" style="edgeStyle=orthogonalEdgeStyle;rounded=0;orthogonalLoop=1;jettySize=auto;html=1;" edge="1" parent="1" source="uBSbXQaMYAqxOAZdE_ow-118" target="uBSbXQaMYAqxOAZdE_ow-127">
          <mxGeometry relative="1" as="geometry" />
        </mxCell>
        <mxCell id="uBSbXQaMYAqxOAZdE_ow-118" value="slug&lt;div&gt;not&lt;br&gt;exists&lt;/div&gt;" style="rhombus;whiteSpace=wrap;html=1;" vertex="1" parent="1">
          <mxGeometry x="1640" y="5601.25" width="80" height="80" as="geometry" />
        </mxCell>
        <mxCell id="uBSbXQaMYAqxOAZdE_ow-119" value="Yes" style="text;html=1;align=center;verticalAlign=middle;whiteSpace=wrap;rounded=0;" vertex="1" parent="1">
          <mxGeometry x="1720" y="5611.25" width="60" height="30" as="geometry" />
        </mxCell>
        <mxCell id="uBSbXQaMYAqxOAZdE_ow-120" value="Erro" style="whiteSpace=wrap;html=1;" vertex="1" parent="1">
          <mxGeometry x="1480" y="5721.25" width="120" height="60" as="geometry" />
        </mxCell>
        <mxCell id="uBSbXQaMYAqxOAZdE_ow-121" value="No" style="text;html=1;align=center;verticalAlign=middle;whiteSpace=wrap;rounded=0;" vertex="1" parent="1">
          <mxGeometry x="1581" y="5611.25" width="60" height="30" as="geometry" />
        </mxCell>
        <mxCell id="uBSbXQaMYAqxOAZdE_ow-122" style="edgeStyle=orthogonalEdgeStyle;rounded=0;orthogonalLoop=1;jettySize=auto;html=1;" edge="1" parent="1" source="uBSbXQaMYAqxOAZdE_ow-123" target="uBSbXQaMYAqxOAZdE_ow-125">
          <mxGeometry relative="1" as="geometry" />
        </mxCell>
        <mxCell id="uBSbXQaMYAqxOAZdE_ow-123" value="UserId" style="shape=process;whiteSpace=wrap;html=1;backgroundOutline=1;" vertex="1" parent="1">
          <mxGeometry x="1760.25" y="5876.25" width="120" height="30" as="geometry" />
        </mxCell>
        <mxCell id="uBSbXQaMYAqxOAZdE_ow-124" value="TenantId" style="shape=process;whiteSpace=wrap;html=1;backgroundOutline=1;" vertex="1" parent="1">
          <mxGeometry x="1760.25" y="5846.25" width="120" height="30" as="geometry" />
        </mxCell>
        <mxCell id="uBSbXQaMYAqxOAZdE_ow-125" value="UserTenant" style="rounded=1;whiteSpace=wrap;html=1;" vertex="1" parent="1">
          <mxGeometry x="1760.25" y="5966.25" width="120" height="60" as="geometry" />
        </mxCell>
        <mxCell id="uBSbXQaMYAqxOAZdE_ow-126" style="edgeStyle=orthogonalEdgeStyle;rounded=0;orthogonalLoop=1;jettySize=auto;html=1;" edge="1" parent="1" source="uBSbXQaMYAqxOAZdE_ow-127" target="uBSbXQaMYAqxOAZdE_ow-124">
          <mxGeometry relative="1" as="geometry" />
        </mxCell>
        <mxCell id="uBSbXQaMYAqxOAZdE_ow-127" value="Tenant" style="rounded=1;whiteSpace=wrap;html=1;" vertex="1" parent="1">
          <mxGeometry x="1760" y="5736.25" width="120" height="60" as="geometry" />
        </mxCell>
        <mxCell id="uBSbXQaMYAqxOAZdE_ow-128" value="" style="rounded=0;whiteSpace=wrap;html=1;fillColor=#f8cecc;strokeColor=#b85450;" vertex="1" parent="1">
          <mxGeometry x="2424" y="6991.25" width="600" height="390" as="geometry" />
        </mxCell>
        <mxCell id="uBSbXQaMYAqxOAZdE_ow-129" style="edgeStyle=orthogonalEdgeStyle;rounded=0;orthogonalLoop=1;jettySize=auto;html=1;" edge="1" parent="1" source="uBSbXQaMYAqxOAZdE_ow-131">
          <mxGeometry relative="1" as="geometry">
            <mxPoint x="2814" y="7210.25" as="targetPoint" />
          </mxGeometry>
        </mxCell>
        <mxCell id="uBSbXQaMYAqxOAZdE_ow-130" style="edgeStyle=orthogonalEdgeStyle;rounded=0;orthogonalLoop=1;jettySize=auto;html=1;" edge="1" parent="1" source="uBSbXQaMYAqxOAZdE_ow-131" target="uBSbXQaMYAqxOAZdE_ow-142">
          <mxGeometry relative="1" as="geometry" />
        </mxCell>
        <mxCell id="uBSbXQaMYAqxOAZdE_ow-131" value="isMy" style="rhombus;whiteSpace=wrap;html=1;" vertex="1" parent="1">
          <mxGeometry x="2594.25" y="7120.25" width="80" height="80" as="geometry" />
        </mxCell>
        <mxCell id="uBSbXQaMYAqxOAZdE_ow-132" style="edgeStyle=orthogonalEdgeStyle;rounded=0;orthogonalLoop=1;jettySize=auto;html=1;" edge="1" parent="1" source="uBSbXQaMYAqxOAZdE_ow-133" target="uBSbXQaMYAqxOAZdE_ow-131">
          <mxGeometry relative="1" as="geometry" />
        </mxCell>
        <mxCell id="uBSbXQaMYAqxOAZdE_ow-133" value="UserId" style="shape=process;whiteSpace=wrap;html=1;backgroundOutline=1;" vertex="1" parent="1">
          <mxGeometry x="2574.25" y="7040.25" width="120" height="30" as="geometry" />
        </mxCell>
        <mxCell id="uBSbXQaMYAqxOAZdE_ow-134" value="TenantId" style="shape=process;whiteSpace=wrap;html=1;backgroundOutline=1;" vertex="1" parent="1">
          <mxGeometry x="2574.25" y="7010.25" width="120" height="30" as="geometry" />
        </mxCell>
        <mxCell id="uBSbXQaMYAqxOAZdE_ow-135" value="Yes" style="text;html=1;align=center;verticalAlign=middle;whiteSpace=wrap;rounded=0;" vertex="1" parent="1">
          <mxGeometry x="2674.25" y="7130.25" width="60" height="30" as="geometry" />
        </mxCell>
        <mxCell id="uBSbXQaMYAqxOAZdE_ow-136" value="No" style="text;html=1;align=center;verticalAlign=middle;whiteSpace=wrap;rounded=0;" vertex="1" parent="1">
          <mxGeometry x="2534.25" y="7130.25" width="60" height="30" as="geometry" />
        </mxCell>
        <mxCell id="uBSbXQaMYAqxOAZdE_ow-137" style="edgeStyle=orthogonalEdgeStyle;rounded=0;orthogonalLoop=1;jettySize=auto;html=1;" edge="1" parent="1" source="uBSbXQaMYAqxOAZdE_ow-139" target="uBSbXQaMYAqxOAZdE_ow-143">
          <mxGeometry relative="1" as="geometry" />
        </mxCell>
        <mxCell id="uBSbXQaMYAqxOAZdE_ow-138" style="edgeStyle=orthogonalEdgeStyle;rounded=0;orthogonalLoop=1;jettySize=auto;html=1;entryX=0.5;entryY=0.017;entryDx=0;entryDy=0;entryPerimeter=0;" edge="1" parent="1" source="uBSbXQaMYAqxOAZdE_ow-139" target="uBSbXQaMYAqxOAZdE_ow-144">
          <mxGeometry relative="1" as="geometry">
            <mxPoint x="2954" y="7321.25" as="targetPoint" />
          </mxGeometry>
        </mxCell>
        <mxCell id="uBSbXQaMYAqxOAZdE_ow-139" value="IsAdmin" style="rhombus;whiteSpace=wrap;html=1;" vertex="1" parent="1">
          <mxGeometry x="2774" y="7210.25" width="80" height="80" as="geometry" />
        </mxCell>
        <mxCell id="uBSbXQaMYAqxOAZdE_ow-140" value="Yes" style="text;html=1;align=center;verticalAlign=middle;whiteSpace=wrap;rounded=0;" vertex="1" parent="1">
          <mxGeometry x="2854" y="7220.25" width="60" height="30" as="geometry" />
        </mxCell>
        <mxCell id="uBSbXQaMYAqxOAZdE_ow-141" value="No" style="text;html=1;align=center;verticalAlign=middle;whiteSpace=wrap;rounded=0;" vertex="1" parent="1">
          <mxGeometry x="2714.25" y="7220.25" width="60" height="30" as="geometry" />
        </mxCell>
        <mxCell id="uBSbXQaMYAqxOAZdE_ow-142" value="Erro" style="whiteSpace=wrap;html=1;" vertex="1" parent="1">
          <mxGeometry x="2434" y="7220.25" width="120" height="60" as="geometry" />
        </mxCell>
        <mxCell id="uBSbXQaMYAqxOAZdE_ow-143" value="Erro" style="whiteSpace=wrap;html=1;" vertex="1" parent="1">
          <mxGeometry x="2634" y="7310.25" width="120" height="60" as="geometry" />
        </mxCell>
        <mxCell id="uBSbXQaMYAqxOAZdE_ow-144" value="Create" style="rounded=1;whiteSpace=wrap;html=1;" vertex="1" parent="1">
          <mxGeometry x="2894" y="7310.25" width="120" height="60" as="geometry" />
        </mxCell>
        <mxCell id="uBSbXQaMYAqxOAZdE_ow-145" value="" style="rounded=0;whiteSpace=wrap;html=1;fillColor=#ffe6cc;strokeColor=#d79b00;" vertex="1" parent="1">
          <mxGeometry x="2370.25" y="6168.75" width="820" height="635" as="geometry" />
        </mxCell>
        <mxCell id="uBSbXQaMYAqxOAZdE_ow-146" style="edgeStyle=orthogonalEdgeStyle;rounded=0;orthogonalLoop=1;jettySize=auto;html=1;" edge="1" parent="1" source="uBSbXQaMYAqxOAZdE_ow-148">
          <mxGeometry relative="1" as="geometry">
            <mxPoint x="2760.25" y="6383.75" as="targetPoint" />
          </mxGeometry>
        </mxCell>
        <mxCell id="uBSbXQaMYAqxOAZdE_ow-147" style="edgeStyle=orthogonalEdgeStyle;rounded=0;orthogonalLoop=1;jettySize=auto;html=1;" edge="1" parent="1" source="uBSbXQaMYAqxOAZdE_ow-148" target="uBSbXQaMYAqxOAZdE_ow-159">
          <mxGeometry relative="1" as="geometry" />
        </mxCell>
        <mxCell id="uBSbXQaMYAqxOAZdE_ow-148" value="isMy" style="rhombus;whiteSpace=wrap;html=1;" vertex="1" parent="1">
          <mxGeometry x="2540.5" y="6293.75" width="80" height="80" as="geometry" />
        </mxCell>
        <mxCell id="uBSbXQaMYAqxOAZdE_ow-149" style="edgeStyle=orthogonalEdgeStyle;rounded=0;orthogonalLoop=1;jettySize=auto;html=1;" edge="1" parent="1" source="uBSbXQaMYAqxOAZdE_ow-150" target="uBSbXQaMYAqxOAZdE_ow-148">
          <mxGeometry relative="1" as="geometry" />
        </mxCell>
        <mxCell id="uBSbXQaMYAqxOAZdE_ow-150" value="UserId" style="shape=process;whiteSpace=wrap;html=1;backgroundOutline=1;" vertex="1" parent="1">
          <mxGeometry x="2520.5" y="6213.75" width="120" height="30" as="geometry" />
        </mxCell>
        <mxCell id="uBSbXQaMYAqxOAZdE_ow-151" value="TenantId" style="shape=process;whiteSpace=wrap;html=1;backgroundOutline=1;" vertex="1" parent="1">
          <mxGeometry x="2520.5" y="6183.75" width="120" height="30" as="geometry" />
        </mxCell>
        <mxCell id="uBSbXQaMYAqxOAZdE_ow-152" value="Yes" style="text;html=1;align=center;verticalAlign=middle;whiteSpace=wrap;rounded=0;" vertex="1" parent="1">
          <mxGeometry x="2620.5" y="6303.75" width="60" height="30" as="geometry" />
        </mxCell>
        <mxCell id="uBSbXQaMYAqxOAZdE_ow-153" value="No" style="text;html=1;align=center;verticalAlign=middle;whiteSpace=wrap;rounded=0;" vertex="1" parent="1">
          <mxGeometry x="2480.5" y="6303.75" width="60" height="30" as="geometry" />
        </mxCell>
        <mxCell id="uBSbXQaMYAqxOAZdE_ow-154" style="edgeStyle=orthogonalEdgeStyle;rounded=0;orthogonalLoop=1;jettySize=auto;html=1;" edge="1" parent="1" source="uBSbXQaMYAqxOAZdE_ow-156" target="uBSbXQaMYAqxOAZdE_ow-160">
          <mxGeometry relative="1" as="geometry" />
        </mxCell>
        <mxCell id="uBSbXQaMYAqxOAZdE_ow-155" style="edgeStyle=orthogonalEdgeStyle;rounded=0;orthogonalLoop=1;jettySize=auto;html=1;" edge="1" parent="1" source="uBSbXQaMYAqxOAZdE_ow-156">
          <mxGeometry relative="1" as="geometry">
            <mxPoint x="2900.25" y="6483.75" as="targetPoint" />
          </mxGeometry>
        </mxCell>
        <mxCell id="uBSbXQaMYAqxOAZdE_ow-156" value="IsAdmin" style="rhombus;whiteSpace=wrap;html=1;" vertex="1" parent="1">
          <mxGeometry x="2720.25" y="6383.75" width="80" height="80" as="geometry" />
        </mxCell>
        <mxCell id="uBSbXQaMYAqxOAZdE_ow-157" value="Yes" style="text;html=1;align=center;verticalAlign=middle;whiteSpace=wrap;rounded=0;" vertex="1" parent="1">
          <mxGeometry x="2800.25" y="6393.75" width="60" height="30" as="geometry" />
        </mxCell>
        <mxCell id="uBSbXQaMYAqxOAZdE_ow-158" value="No" style="text;html=1;align=center;verticalAlign=middle;whiteSpace=wrap;rounded=0;" vertex="1" parent="1">
          <mxGeometry x="2660.5" y="6393.75" width="60" height="30" as="geometry" />
        </mxCell>
        <mxCell id="uBSbXQaMYAqxOAZdE_ow-159" value="Erro" style="whiteSpace=wrap;html=1;" vertex="1" parent="1">
          <mxGeometry x="2380.25" y="6393.75" width="120" height="60" as="geometry" />
        </mxCell>
        <mxCell id="uBSbXQaMYAqxOAZdE_ow-160" value="Erro" style="whiteSpace=wrap;html=1;" vertex="1" parent="1">
          <mxGeometry x="2580.25" y="6483.75" width="120" height="60" as="geometry" />
        </mxCell>
        <mxCell id="uBSbXQaMYAqxOAZdE_ow-161" value="Update" style="rounded=1;whiteSpace=wrap;html=1;" vertex="1" parent="1">
          <mxGeometry x="3050.25" y="6723.75" width="120" height="60" as="geometry" />
        </mxCell>
        <mxCell id="uBSbXQaMYAqxOAZdE_ow-162" style="edgeStyle=orthogonalEdgeStyle;rounded=0;orthogonalLoop=1;jettySize=auto;html=1;entryX=0.5;entryY=0;entryDx=0;entryDy=0;" edge="1" parent="1" source="uBSbXQaMYAqxOAZdE_ow-163" target="uBSbXQaMYAqxOAZdE_ow-167">
          <mxGeometry relative="1" as="geometry">
            <Array as="points">
              <mxPoint x="2900.25" y="6573.75" />
              <mxPoint x="2960.25" y="6573.75" />
            </Array>
          </mxGeometry>
        </mxCell>
        <mxCell id="uBSbXQaMYAqxOAZdE_ow-163" value="role_id" style="shape=process;whiteSpace=wrap;html=1;backgroundOutline=1;" vertex="1" parent="1">
          <mxGeometry x="2840.25" y="6513.75" width="120" height="30" as="geometry" />
        </mxCell>
        <mxCell id="uBSbXQaMYAqxOAZdE_ow-164" value="user_id" style="shape=process;whiteSpace=wrap;html=1;backgroundOutline=1;" vertex="1" parent="1">
          <mxGeometry x="2840.25" y="6483.75" width="120" height="30" as="geometry" />
        </mxCell>
        <mxCell id="uBSbXQaMYAqxOAZdE_ow-165" style="edgeStyle=orthogonalEdgeStyle;rounded=0;orthogonalLoop=1;jettySize=auto;html=1;" edge="1" parent="1" source="uBSbXQaMYAqxOAZdE_ow-167" target="uBSbXQaMYAqxOAZdE_ow-161">
          <mxGeometry relative="1" as="geometry" />
        </mxCell>
        <mxCell id="uBSbXQaMYAqxOAZdE_ow-166" style="edgeStyle=orthogonalEdgeStyle;rounded=0;orthogonalLoop=1;jettySize=auto;html=1;" edge="1" parent="1" source="uBSbXQaMYAqxOAZdE_ow-167" target="uBSbXQaMYAqxOAZdE_ow-169">
          <mxGeometry relative="1" as="geometry" />
        </mxCell>
        <mxCell id="uBSbXQaMYAqxOAZdE_ow-167" value="user&lt;div&gt;exists&lt;/div&gt;" style="rhombus;whiteSpace=wrap;html=1;" vertex="1" parent="1">
          <mxGeometry x="2920.25" y="6603.75" width="80" height="80" as="geometry" />
        </mxCell>
        <mxCell id="uBSbXQaMYAqxOAZdE_ow-168" value="Yes" style="text;html=1;align=center;verticalAlign=middle;whiteSpace=wrap;rounded=0;" vertex="1" parent="1">
          <mxGeometry x="3000.25" y="6613.75" width="60" height="30" as="geometry" />
        </mxCell>
        <mxCell id="uBSbXQaMYAqxOAZdE_ow-169" value="Erro" style="whiteSpace=wrap;html=1;" vertex="1" parent="1">
          <mxGeometry x="2760.25" y="6723.75" width="120" height="60" as="geometry" />
        </mxCell>
        <mxCell id="uBSbXQaMYAqxOAZdE_ow-170" value="No" style="text;html=1;align=center;verticalAlign=middle;whiteSpace=wrap;rounded=0;" vertex="1" parent="1">
          <mxGeometry x="2861.25" y="6613.75" width="60" height="30" as="geometry" />
        </mxCell>
        <mxCell id="uBSbXQaMYAqxOAZdE_ow-171" style="edgeStyle=orthogonalEdgeStyle;rounded=0;orthogonalLoop=1;jettySize=auto;html=1;entryX=0.5;entryY=0;entryDx=0;entryDy=0;" edge="1" parent="1" source="uBSbXQaMYAqxOAZdE_ow-172" target="uBSbXQaMYAqxOAZdE_ow-151">
          <mxGeometry relative="1" as="geometry">
            <Array as="points">
              <mxPoint x="2070" y="5451.25" />
              <mxPoint x="2070" y="5826.25" />
              <mxPoint x="2340" y="5826.25" />
              <mxPoint x="2340" y="6146.25" />
              <mxPoint x="2581" y="6146.25" />
            </Array>
          </mxGeometry>
        </mxCell>
        <mxCell id="uBSbXQaMYAqxOAZdE_ow-172" value="PUT" style="rounded=0;whiteSpace=wrap;html=1;fillColor=#ffe6cc;strokeColor=#d79b00;" vertex="1" parent="1">
          <mxGeometry x="1965.25" y="5436.25" width="70" height="30" as="geometry" />
        </mxCell>
      </root>
    </mxGraphModel>
  </diagram>
</mxfile>
